{"accessors" : [{"bufferView" : 0, "byteOffset" : 0, "componentType" : 5123, "count" : 303, "type" : "SCALAR", "max" : [261], "min" : [0]}, {"bufferView" : 1, "byteOffset" : 0, "componentType" : 5126, "count" : 262, "type" : "VEC3", "max" : [0.17512816190719604, 0.13724938035011292, 0.14671427011489868], "min" : [-0.18860915303230286, -0.010056581348180771, -0.1412442922592163], "name" : "POSITION"}, {"bufferView" : 1, "byteOffset" : 12, "componentType" : 5126, "count" : 262, "type" : "VEC3", "max" : [1.0000008344650269, 1.0000044107437134, 0.9999959468841553], "min" : [-0.9999918937683105, -0.01210037712007761, -0.9999985694885254], "name" : "NORMAL"}, {"bufferView" : 1, "byteOffset" : 24, "componentType" : 5126, "count" : 262, "type" : "VEC2", "max" : [1, 1], "min" : [0, 1], "name" : "TEXCOORD_0"}, {"bufferView" : 0, "byteOffset" : 608, "componentType" : 5123, "count" : 618, "type" : "SCALAR", "max" : [530], "min" : [0]}, {"bufferView" : 2, "byteOffset" : 0, "componentType" : 5126, "count" : 531, "type" : "VEC3", "max" : [0.17662817239761353, 0.13724938035011292, 0.1472352147102356], "min" : [-0.18938562273979187, -0.01149320974946022, -0.14296501874923706], "name" : "POSITION"}, {"bufferView" : 2, "byteOffset" : 12, "componentType" : 5126, "count" : 531, "type" : "VEC3", "max" : [1.0000044107437134, 1.0000044107437134, 1.0000044107437134], "min" : [-1.0000044107437134, -0.9999698400497437, -1.0000044107437134], "name" : "NORMAL"}, {"bufferView" : 2, "byteOffset" : 24, "componentType" : 5126, "count" : 531, "type" : "VEC2", "max" : [3.8935091495513916, 1.016910195350647], "min" : [-2.897749185562134, 0.41714465618133545], "name" : "TEXCOORD_0"}, {"bufferView" : 0, "byteOffset" : 1844, "componentType" : 5123, "count" : 303, "type" : "SCALAR", "max" : [255], "min" : [0]}, {"bufferView" : 3, "byteOffset" : 0, "componentType" : 5126, "count" : 256, "type" : "VEC3", "max" : [0.17662817239761353, 0.13479192554950714, 0.1472352147102356], "min" : [-0.18938562273979187, -0.01149320974946022, -0.14296501874923706], "name" : "POSITION"}, {"bufferView" : 3, "byteOffset" : 12, "componentType" : 5126, "count" : 256, "type" : "VEC3", "max" : [0.999992847442627, -0.00020001067605335265, 0.9999985694885254], "min" : [-1.000001072883606, -1.0000044107437134, -0.9999959468841553], "name" : "NORMAL"}, {"bufferView" : 3, "byteOffset" : 24, "componentType" : 5126, "count" : 256, "type" : "VEC2", "max" : [1, 1], "min" : [0, 1], "name" : "TEXCOORD_0"}], "asset" : {"generator" : "Aspose.3D 23.11.1", "version" : "2.0"}, "buffers" : [{"uri" : "data:application/octet-stream;base64,", "byteLength" : 41636}], "bufferViews" : [{"buffer" : 0, "byteOffset" : 0, "byteLength" : 2452, "target" : 34963}, {"buffer" : 0, "byteOffset" : 2456, "byteLength" : 9696, "byteStride" : 32, "target" : 34962}, {"buffer" : 0, "byteOffset" : 12156, "byteLength" : 19776, "byteStride" : 32, "target" : 34962}, {"buffer" : 0, "byteOffset" : 31936, "byteLength" : 9696, "byteStride" : 32, "target" : 34962}], "images" : [{"uri" : "data:image/jpeg;base64,"}], "materials" : [{"name" : "Material", "pbrMetallicRoughness" : {"baseColorFactor" : [0.33362656831741333, 0.2177053689956665, 0.09150967746973038, 1], "metallicFactor" : 0, "roughnessFactor" : 1}, "emissiveFactor" : [0, 0, 0], "alphaMode" : "OPAQUE", "doubleSided" : true}, {"name" : "Material.001", "pbrMetallicRoughness" : {"baseColorFactor" : [1, 1, 1, 1], "baseColorTexture" : {"index" : 0, "texCoord" : 0}, "metallicFactor" : 0, "roughnessFactor" : 0.5}, "emissiveFactor" : [0, 0, 0], "alphaMode" : "OPAQUE", "doubleSided" : true}, {"name" : "Material.002", "pbrMetallicRoughness" : {"baseColorFactor" : [1, 1, 1, 1], "metallicFactor" : 0, "roughnessFactor" : 1}, "emissiveFactor" : [0, 0, 0], "alphaMode" : "OPAQUE", "doubleSided" : true}], "meshes" : [{"primitives" : [{"attributes" : {"POSITION" : 1, "NORMAL" : 2, "TEXCOORD_0" : 3}, "indices" : 0, "material" : 0, "mode" : 4}, {"attributes" : {"POSITION" : 5, "NORMAL" : 6, "TEXCOORD_0" : 7}, "indices" : 4, "material" : 1, "mode" : 4}, {"attributes" : {"POSITION" : 9, "NORMAL" : 10, "TEXCOORD_0" : 11}, "indices" : 8, "material" : 2, "mode" : 4}]}], "nodes" : [{"mesh" : 0, "name" : "Curve.001"}], "samplers" : [{"magFilter" : 9729, "minFilter" : 9987, "wrapS" : 10497, "wrapT" : 10497}], "scene" : 0, "scenes" : [{"nodes" : [0]}], "textures" : [{"sampler" : 0, "source" : 0, "name" : ""}]}